<?xml version="1.0" standalone="no"?><!DOCTYPE svg PUBLIC "-//W3C//DTD SVG 1.1//EN" "http://www.w3.org/Graphics/SVG/1.1/DTD/svg11.dtd"><svg t="1575995484310" class="icon" viewBox="0 0 1024 1024" version="1.1" xmlns="http://www.w3.org/2000/svg" p-id="1863" xmlns:xlink="http://www.w3.org/1999/xlink" width="200" height="200"><defs><style type="text/css"></style></defs><path d="M843.1375 843.7375 843.1375 103.5625 180.875 103.5625l0 740.175L64 843.7375l0 76.7125L960 920.45l0-76.7125L843.1375 843.7375zM336.7 220.4375l116.875 0 0 115.6625-116.875 0L336.7 220.4375zM336.7 415.2125l116.875 0 0 115.6625-116.875 0L336.7 415.2125zM570.4375 842.525l-116.875 0L453.5625 610l116.875 0L570.4375 842.525zM687.3125 530.875l-116.875 0 0-115.6625 116.875 0L687.3125 530.875zM687.3125 336.0875l-116.875 0 0-115.6625 116.875 0L687.3125 336.0875z" p-id="1864"></path></svg>